# xmcd CD database file
#
# Track frame offsets:
#	150
#	6212
#	25099
#	46940
#	66245
#	86156
#	112808
#	138373
#	151345
#	174730
#	191790
#	217380
#	248907
#	272217
#
# Disc length: 3856 seconds
#
# Revision: 2
# Processed by: cddbd v1.5.2PL0 Copyright (c) Steve Scherf et al.
# Submitted via: CDex 1.70beta2
#
DISCID=ca0f0e0e
DTITLE=TRIVIUM - ASCENDANCY
DYEAR=2005
DGENRE=Heavy Metal
TTITLE0=The End Of Everything
TTITLE1=Rain
TTITLE2=Pull Harder On The Strings Of Your Martyr
TTITLE3=Drowned And Torn Asunder
TTITLE4=Ascendancy
TTITLE5=A Gunshot To The Head Of Trepidation
TTITLE6=Like Light To The Flies
TTITLE7=Dying In Your Arms
TTITLE8=The Deceived
TTITLE9=Suffocating Sight
TTITLE10=Departure
TTITLE11=Declaration
TTITLE12=Blinding Tears Will Break The Skies [Bonus Track]
TTITLE13=Washing Away Me In The Tides [Bonus Track]
EXTD=YEAR: 2005
EXTT0=
EXTT1=
EXTT2=
EXTT3=
EXTT4=
EXTT5=
EXTT6=
EXTT7=
EXTT8=
EXTT9=
EXTT10=
EXTT11=
EXTT12=
EXTT13=
PLAYORDER=
